# xmcd CD database file
#
# Track frame offsets:
#	150
#	13336
#	27249
#	39393
#	51245
#	71047
#	84307
#	99393
#	110630
#	123571
#	138808
#	148985
#	159126
#	171080
#	183688
#	198623
#	214879
#	228231
#	246285
#	262351
#	275239
#	292067
#	305016
#	320571
#
# Disc length: 4474 seconds
#
# Revision: 0
# Processed by: cddbd v1.5.1PL0 Copyright (c) Steve Scherf et al.
# Submitted via: CDex 1.51
#
DISCID=7d117818
DTITLE=Conway Twitty - Greatest Hits
DYEAR=2004
DGENRE=Country
TTITLE0=Almost Persuaded
TTITLE1=Baby's Got Her Blue Jeans On (Country)
TTITLE2=Before The Next Teardrop Falls
TTITLE3=Don't Call Him A Cowboy
TTITLE4=Don't Cry Joni
TTITLE5=Happy Birthday Darlin'
TTITLE6=He Stopped Loving Her Today
TTITLE7=Hello Darling
TTITLE8=Help Me Make It Through The Night
TTITLE9=I'd Love To Lay You Down
TTITLE10=It's Only Make Believe
TTITLE11=Kiss An Angel Good Morning
TTITLE12=Linda On My Mind
TTITLE13=Long Black Train
TTITLE14=Saturday Night Special
TTITLE15=She's Acting Single,I'm Drinkin' Doubles
TTITLE16=Slow Hands
TTITLE17=Somebody's needin' somebody
TTITLE18=The Rose
TTITLE19=This Time I've Hurt Her More Than She Loves
TTITLE20=Three Times A Lady
TTITLE21=Tight Fittin Jeans
TTITLE22=Touch The Hand
TTITLE23=Ain't She Something Else
EXTD=YEAR: 2004
EXTT0=
EXTT1=
EXTT2=
EXTT3=
EXTT4=
EXTT5=
EXTT6=
EXTT7=
EXTT8=
EXTT9=
EXTT10=
EXTT11=
EXTT12=
EXTT13=
EXTT14=
EXTT15=
EXTT16=
EXTT17=
EXTT18=
EXTT19=
EXTT20=
EXTT21=
EXTT22=
EXTT23=
PLAYORDER=
